#!OML:ASF H:\Pregnant\Project 1\Capture day 1\Session 1\femalepreg.ASF
:FULLY-SPECIFIED
:DEGREES
1477
root 14.4622 5.93433 28.3407 -153.184 -17.1851 184.424
lowerback 36.5062 8.18446 0.365411
upperback 10.0287 7.2394 -4.98871
thorax -6.4039 2.57807 -8.00549
lowerneck 1.19819 26.3312 21.5238
upperneck -8.26282 37.592 -33.0995
head 7.89631 18.6493 -7.58624
rclavicle 2.70347e-014 8.94531e-015
rhumerus 48.1378 2.7287 -74.4145
rradius 26.8613
rwrist 14.5041
rhand -59.9438 -25.9407
rfingers 7.12502
rthumb -32.0983 -413.127
lclavicle 2.70347e-014 8.94531e-015
lhumerus 68.8958 -26.0598 28.9764
lradius 31.0734
lwrist 40.2864
lhand -30.5819 -361.653
lfingers 7.12502
lthumb -3.87937 388.292
rfemur 207.591 -39.2846 -301.402
rtibia 157.31
rfoot -37.076 15.1538
rtoes -40.5262
lfemur -224.148 57.3615 -118.961
ltibia 157.705
lfoot -288.2 -46.2051
ltoes -10.7175
1478
root 14.4729 5.8959 28.3812 -152.731 -17.0829 184.454
lowerback 35.8334 8.17892 0.270605
upperback 9.99819 7.27429 -5.04686
thorax -6.20387 2.62279 -7.98586
lowerneck 1.08718 26.3399 21.461
upperneck -8.34012 37.5725 -33.1619
head 7.88892 18.6338 -7.591
rclavicle -1.20861e-013 7.97127e-014
rhumerus 48.3122 2.67521 -74.4104
rradius 26.8578
rwrist 14.4868
rhand -59.8236 -25.7745
rfingers 7.12502
rthumb -31.9839 -412.984
lclavicle -1.20861e-013 7.97127e-014
lhumerus 69.0612 -25.9014 28.8394
lradius 30.9946
lwrist 40.3479
lhand -30.5951 -361.514
lfingers 7.12502
lthumb -3.89211 388.43
rfemur 206.87 -37.6069 -301.871
rtibia 157.464
rfoot -36.0341 14.8279
rtoes -40.5283
lfemur -313.326 -56.3382 59.1079
ltibia 202.012
lfoot -286.294 -134.621
ltoes -9.40551
1479
root 14.4829 5.86189 28.4216 -152.37 -17.0555 184.461
lowerback 35.3116 8.13131 0.247277
upperback 9.97227 7.2662 -5.10059
thorax -6.04674 2.642 -7.9932
lowerneck 0.972686 26.348 21.4047
upperneck -8.41319 37.5521 -33.2202
head 7.88331 18.617 -7.59483
rclavicle -9.70069e-014 4.9895e-014
rhumerus 48.4859 2.62189 -74.4094
rradius 26.8492
rwrist 14.4706
rhand -59.7013 -25.6217
rfingers 7.12502
rthumb -31.8675 -412.854
lclavicle -9.70069e-014 4.9895e-014
lhumerus 69.2156 -25.7488 28.7031
lradius 30.9284
lwrist 40.4242
lhand -30.6233 -361.396
lfingers 7.12502
lthumb -3.91933 388.548
rfemur 206.066 -36.4059 -302.022
rtibia 157.594
rfoot -35.3298 14.5555
rtoes -40.555
lfemur -311.457 -55.4614 57.732
ltibia 201.778
lfoot -284.766 -135.355
ltoes -7.96144
1480
root 14.4927 5.83279 28.4612 -152.112 -17.0892 184.443
lowerback 34.9486 8.05402 0.277036
upperback 9.95359 7.22125 -5.14842
thorax -5.93584 2.63781 -8.01998
lowerneck 0.855271 26.3555 21.3549
upperneck -8.48408 37.5304 -33.2774
head 7.87946 18.5989 -7.59868
rclavicle -7.63333e-014 1.06151e-013
rhumerus 48.6593 2.56916 -74.4117
rradius 26.8358
rwrist 14.4553
rhand -59.5759 -25.4806
rfingers 7.12502
rthumb -31.748 -412.737
lclavicle -7.63333e-014 1.06151e-013
lhumerus 69.3582 -25.6022 28.566
lradius 30.8759
lwrist 40.5196
lhand -30.6693 -361.305
lfingers 7.12502
lthumb -3.96384 388.638
rfemur 205.243 -35.6616 -301.884
rtibia 157.703
rfoot -34.958 14.3388
rtoes -40.5967
lfemur -310.159 -54.7507 56.7963
ltibia 201.598
lfoot -283.592 -135.941
ltoes -6.8935
1481
root 14.502 5.80749 28.4999 -151.938 -17.1884 184.397
lowerback 34.715 7.94327 0.359587
upperback 9.94401 7.13749 -5.19083
thorax -5.86065 2.61061 -8.0643
lowerneck 0.73577 26.3622 21.3095
upperneck -8.55465 37.5075 -33.3352
head 7.87675 18.5799 -7.60302
rclavicle -6.52014e-014 1.17283e-014
rhumerus 48.8329 2.51804 -74.4177
rradius 26.8184
rwrist 14.4407
rhand -59.446 -25.3475
rfingers 7.12502
rthumb -31.6242 -412.628
lclavicle -6.52014e-014 1.17283e-014
lhumerus 69.4878 -25.4601 28.434
lradius 30.8333
lwrist 40.631
lhand -30.7329 -361.245
lfingers 7.12502
lthumb -4.02522 388.697
rfemur 204.367 -35.3444 -301.451
rtibia 157.801
rfoot -34.9006 14.1769
rtoes -40.6559
lfemur -309.535 -54.2146 56.4124
ltibia 201.46
lfoot -282.86 -136.369
ltoes -6.25016
1482
root 14.5109 5.78468 28.5374 -151.828 -17.344 184.328
lowerback 34.5771 7.80359 0.484905
upperback 9.94312 7.02085 -5.22818
thorax -5.81075 2.56442 -8.12119
lowerneck 0.615242 26.3686 21.2659
upperneck -8.62573 37.4838 -33.3941
head 7.87447 18.5603 -7.60785
rclavicle -1.4392e-013 5.60573e-014
rhumerus 49.0057 2.46985 -74.4276
rradius 26.7984
rwrist 14.4253
rhand -59.3106 -25.2176
rfingers 7.12502
rthumb -31.4953 -412.524
lclavicle -1.4392e-013 5.60573e-014
lhumerus 69.6036 -25.3212 28.3149
lradius 30.7941
lwrist 40.7515
lhand -30.8095 -361.222
lfingers 7.12502
lthumb -4.09916 388.719
rfemur 203.431 -35.3654 -300.764
rtibia 157.896
rfoot -35.0963 14.0519
rtoes -40.7312
lfemur -309.581 -53.8351 56.601
ltibia 201.352
lfoot -282.595 -136.642
ltoes -6.03373
1483
root 14.5196 5.76319 28.5737 -151.769 -17.5366 184.245
lowerback 34.5039 7.6463 0.635444
upperback 9.94897 6.88315 -5.25969
thorax -5.77805 2.50575 -8.18255
lowerneck 0.495849 26.3749 21.2208
upperneck -8.69816 37.4598 -33.4543
head 7.87168 18.5409 -7.61322
rclavicle -5.725e-014 3.71727e-014
rhumerus 49.1764 2.42648 -74.4411
rradius 26.7775
rwrist 14.4067
rhand -59.1688 -25.0838
rfingers 7.12502
rthumb -31.3602 -412.416
lclavicle -5.725e-014 3.71727e-014
lhumerus 69.7053 -25.1834 28.2193
lradius 30.7486
lwrist 40.8705
lhand -30.8913 -361.238
lfingers 7.12502
lthumb -4.17821 388.701
rfemur 202.452 -35.6057 -299.899
rtibia 157.99
rfoot -35.4616 13.9389
rtoes -40.8183
lfemur -310.201 -53.5732 57.3001
ltibia 201.26
lfoot -282.764 -136.775
ltoes -6.19081
1484
root 14.5283 5.7422 28.6087 -151.746 -17.7456 184.159
lowerback 34.4705 7.48377 0.793967
upperback 9.95907 6.73705 -5.28471
thorax -5.75662 2.44125 -8.24117
lowerneck 0.379012 26.3812 21.1721
upperneck -8.77199 37.436 -33.5157
head 7.86778 18.5221 -7.61906
rclavicle -3.97569e-014 3.57812e-015
rhumerus 49.3438 2.38936 -74.457
rradius 26.7566
rwrist 14.3816
rhand -59.0206 -24.9422
rfingers 7.12502
rthumb -31.219 -412.302
lclavicle -3.97569e-014 3.57812e-015
lhumerus 69.7937 -25.0449 28.1582
lradius 30.6881
lwrist 40.9742
lhand -30.9708 -361.292
lfingers 7.12502
lthumb -4.25494 388.645
rfemur 201.463 -35.9514 -298.939
rtibia 158.083
rfoot -35.9135 13.8147
rtoes -40.911
lfemur -311.229 -53.3785 58.3774
ltibia 201.179
lfoot -283.274 -136.802
ltoes -6.61575
1485
root 14.5373 5.72124 28.6424 -151.752 -17.9549 184.081
lowerback 34.4597 7.32625 0.946878
upperback 9.97097 6.59301 -5.30211
thorax -5.74298 2.37631 -8.29102
lowerneck 0.266528 26.3875 21.1187
upperneck -8.84701 37.4126 -33.5792
head 7.86268 18.5043 -7.62563
rclavicle 3.97569e-015 -2.74323e-014
rhumerus 49.5072 2.36001 -74.4727
rradius 26.7358
rwrist 14.3471
rhand -58.8662 -24.7914
rfingers 7.12502
rthumb -31.0718 -412.179
lclavicle 3.97569e-015 -2.74323e-014
lhumerus 69.8692 -24.9047 28.14
lradius 30.6067
lwrist 41.0502
lhand -31.041 -361.38
lfingers 7.12502
lthumb -4.32271 388.556
rfemur 200.501 -36.3161 -297.956
rtibia 158.173
rfoot -36.3859 13.6645
rtoes -41.0027
lfemur -312.484 -53.2058 59.6762
ltibia 201.104
lfoot -284.007 -136.76
ltoes -7.18579
1486
root 14.5468 5.70025 28.6752 -151.786 -18.1539 184.017
lowerback 34.4665 7.18071 1.0866
upperback 9.98244 6.45812 -5.31136
thorax -5.7374 2.31439 -8.32955
lowerneck 0.159519 26.3935 21.0615
upperneck -8.92253 37.3897 -33.6459
head 7.85694 18.4876 -7.63331
rclavicle -5.48646e-014 2.74323e-014
rhumerus 49.6659 2.33971 -74.4843
rradius 26.7142
rwrist 14.3003
rhand -58.7052 -24.6334
rfingers 7.12502
rthumb -30.9183 -412.05
lclavicle -5.48646e-014 2.74323e-014
lhumerus 69.933 -24.7636 28.1646
lradius 30.5045
lwrist 41.0919
lhand -31.0989 -361.491
lfingers 7.12502
lthumb -4.37867 388.444
rfemur 199.6 -36.6493 -296.999
rtibia 158.258
rfoot -36.8327 13.4904
rtoes -41.0829
lfemur -313.792 -53.0269 61.0396
ltibia 201.035
lfoot -284.844 -136.688
ltoes -7.77977
1487
root 14.5568 5.67922 28.7071 -151.842 -18.3416 183.969
lowerback 34.4851 7.04796 1.21207
upperback 9.99262 6.33402 -5.31163
thorax -5.73854 2.2565 -8.35542
lowerneck 0.0585946 26.3991 21.0007
upperneck -8.99731 37.368 -33.7172
head 7.85145 18.4724 -7.64225
rclavicle 1.59028e-015 -4.17448e-014
rhumerus 49.8205 2.33177 -74.4856
rradius 26.6907
rwrist 14.2393
rhand -58.5369 -24.4729
rfingers 7.12502
rthumb -30.7579 -411.92
lclavicle 1.59028e-015 -4.17448e-014
lhumerus 69.9833 -24.6222 28.2315
lradius 30.3854
lwrist 41.0942
lhand -31.1442 -361.614
lfingers 7.12502
lthumb -4.42236 388.32
rfemur 198.764 -36.94 -296.077
rtibia 158.338
rfoot -37.236 13.3115
rtoes -41.1409
lfemur -315.048 -52.829 62.3666
ltibia 200.972
lfoot -285.697 -136.614
ltoes -8.31292
1488
root 14.5672 5.65812 28.7384 -151.918 -18.5214 183.937
lowerback 34.5121 6.92564 1.3261
upperback 10.0012 6.21928 -5.30306
thorax -5.74522 2.20222 -8.36948
lowerneck -0.0353199 26.4042 20.9373
upperneck -9.07081 37.3481 -33.7948
head 7.84704 18.4591 -7.65279
rclavicle -5.28767e-014 8.36883e-014
rhumerus 49.9721 2.34047 -74.4695
rradius 26.6632
rwrist 14.1615
rhand -58.3596 -24.3145
rfingers 7.12502
rthumb -30.5889 -411.793
lclavicle -5.28767e-014 8.36883e-014
lhumerus 70.0212 -24.4834 28.3215
lradius 30.2601
lwrist 41.0684
lhand -31.1819 -361.732
lfingers 7.12502
lthumb -4.45879 388.201
rfemur 197.981 -37.1975 -295.178
rtibia 158.413
rfoot -37.5949 13.1514
rtoes -41.1682
lfemur -223.799 52.61 -116.394
ltibia 159.085
lfoot -286.514 -43.4452
ltoes -8.74118
1489
root 14.578 5.63686 28.7692 -152.008 -18.6973 183.919
lowerback 34.5395 6.81039 1.4314
upperback 10.0089 6.11137 -5.28606
thorax -5.75385 2.15073 -8.3722
lowerneck -0.122101 26.4096 20.8713
upperneck -9.14262 37.331 -33.8795
head 7.84423 18.4481 -7.66471
rclavicle 8.5875e-014 -1.49884e-013
rhumerus 50.123 2.37131 -74.4286
rradius 26.6302
rwrist 14.065
rhand -58.1709 -24.1639
rfingers 7.12502
rthumb -30.4088 -411.676
lclavicle 8.5875e-014 -1.49884e-013
lhumerus 70.045 -24.3484 28.4208
lradius 30.1377
lwrist 41.0233
lhand -31.2178 -361.835
lfingers 7.12502
lthumb -4.49349 388.097
rfemur 197.23 -37.4339 -294.283
rtibia 158.487
rfoot -37.9149 13.0352
rtoes -41.1591
lfemur -222.759 52.3696 -115.255
ltibia 159.138
lfoot -287.278 -43.4806
ltoes -9.05093
